#format: frame checksums
#version: 2
#hash: MD5
#tb 0: 1/8000
#media_type 0: audio
#codec_id 0: pcm_s16le
#sample_rate 0: 8000
#channel_layout_name 0: mono
#stream#, dts,        pts, duration,     size, hash
0,          0,          0,      256,      512, d549127a5d4791eb9df0f796a1003961
0,        256,        256,      256,      512, 3e412bc00abdef38d013be863092d17e
0,        512,        512,      256,      512, 29b2f89be99fce8bcecc44a2e0911abe
0,        768,        768,      256,      512, 65e6839329b21b6edd377c90cdd9411d
0,       1024,       1024,      256,      512, 2afcdd15176a4511726020f64c43d4be
0,       1280,       1280,      256,      512, d5d315c87f5fd5afe9eef7d271bfdd77
0,       1536,       1536,      256,      512, 084c9945a3c560715e4e1627bb631c91
0,       1792,       1792,      256,      512, 09c0e31afdf3dd9eede73b74199fd6b2
0,       2048,       2048,      256,      512, e2515218054c31885614535ca0bbb563
0,       2304,       2304,      256,      512, bd825f9d78d2f907ebf9a9e238ce11de
0,       2560,       2560,      256,      512, 8566d041948e94622f62c6b382ca052b
0,       2816,       2816,      256,      512, 561f07fd282d75829a455180f2ac2a1e
0,       3072,       3072,      256,      512, 6cd1ab5ca3bdd35cd75f77f6d43b1a78
0,       3328,       3328,      256,      512, 1a285395ad1b5a50992e4dce6b92d412
0,       3584,       3584,      256,      512, 37cc9705a7a2b40bb8a791daf793a8d1
0,       3840,       3840,      256,      512, 1363e6813baf4b5759d9c2a090a6dc96
0,       4096,       4096,      256,      512, 65597464cd02b65e726c8f297c372896
0,       4352,       4352,      256,      512, 42a50a6728b6e2bf57d2c914b8946323
0,       4608,       4608,      256,      512, 92672d013850b3f2d6a1ad724df70d39
0,       4864,       4864,      256,      512, 1804b6bdf202ab042cb315ba78b2361d
0,       5120,       5120,      256,      512, c74a803ccc1f398296e254361a147f9d
0,       5376,       5376,      256,      512, 3912b72392b32cd94b499322a93bf842
0,       5632,       5632,      256,      512, 8f4bec1c2201155c7be2d94f2756f237
0,       5888,       5888,      256,      512, 6f2ad074108a397342d09fd2539ac0e9
0,       6144,       6144,      256,      512, 4f0de75927d79bcabaef16e23254d89b
0,       6400,       6400,      256,      512, d2c5309ea74231ce144c7f777e9df4ba
0,       6656,       6656,      256,      512, b4a673318faabf163e04e74dd6f6bd11
0,       6912,       6912,      256,      512, 14ca045bcc69ab9968977f7ae225e67b
0,       7168,       7168,      256,      512, 7f46226b4de8c08752fa143671d343c7
0,       7424,       7424,      256,      512, 1a9c948d253f203eb6a0c602c76764b7
0,       7680,       7680,      256,      512, 4edeab1f793313665aa09d4ddf529cd2
0,       7936,       7936,      256,      512, 11e508121587c980cbaa3cef83d99025
0,       8192,       8192,      256,      512, 8f1075311250e38b8237297230ca98e7
0,       8448,       8448,      256,      512, e311c6f0be42075e8c9da9c506a1993a
0,       8704,       8704,      256,      512, cd5bf3a2a058621348c77f443aea5f20
0,       8960,       8960,      256,      512, 58184f8e52486d67492560062ff69aa0
0,       9216,       9216,      256,      512, abdec2b18e9e11f9a2101eae39fddccc
0,       9472,       9472,      256,      512, 9077c8f777662d10247b3806312c3842
0,       9728,       9728,      256,      512, 3d728cec1af5a36ce50a2edc47b725f6
0,       9984,       9984,      256,      512, 66376022c5df9ffad2645e8e5b360bad
0,      10240,      10240,      256,      512, 2d109211cd159a6e7e417b6a009c3925
0,      10496,      10496,      256,      512, 1720a977e5325352319bf5ff379dcd7a
0,      10752,      10752,      256,      512, 44804d6d1fcf83eb087e1fbc24b6eac9
0,      11008,      11008,      256,      512, b1ae4e2e8d4e40988702f1b69a36042d
0,      11264,      11264,      256,      512, 8c2dde899f06668151535e040f95b35f
0,      11520,      11520,      256,      512, fbb1d49c4a145f018dad17e3d562c85b
0,      11776,      11776,      256,      512, 2c5c4094e00a5ee0c0717789747468aa
0,      12032,      12032,      256,      512, 3f066cee877b577300007cad238945a8
0,      12288,      12288,      256,      512, 09137ef1ca8797f32f9e282f4bca85fa
0,      12544,      12544,      256,      512, ac01f7488b3a1215c86b891d02ef070d
0,      12800,      12800,      256,      512, e34b2f8f69423fea10fb82d51807a7ab
0,      13056,      13056,      256,      512, 1dfc348bf8e2ec76ac79ee3c8d70fdff
0,      13312,      13312,      256,      512, 04f6c88729e192b9eab0407a13b9b2a5
0,      13568,      13568,      256,      512, f413212836017cb4384b72edf2c6ccaf
0,      13824,      13824,      256,      512, ece598ed67d02f1e0fa72fc488dd41d2
0,      14080,      14080,      256,      512, 2f6f5980e7f2dce62107adcbb67564f4
0,      14336,      14336,      256,      512, 7c74faa3d535d95ae67cc67b8abb351e
0,      14592,      14592,      256,      512, 4203e80be60fc9ec2d459e8736a0c703
0,      14848,      14848,      256,      512, f337195d01de9df38146ee57c97930d0
0,      15104,      15104,      256,      512, 704c5456dae8742fc4b3cb380bb99083
0,      15360,      15360,      256,      512, a1c2b1f488680cfbece7c6e32abc8aae
0,      15616,      15616,      256,      512, 0af87b0715efadb3646334470d21b7a6
0,      15872,      15872,      256,      512, e2a9cd2fcf860c2698d04d51e99a9970
0,      16128,      16128,      256,      512, a48be740e8fca939c926b4af0f2333c7
0,      16384,      16384,      256,      512, 5a4ee02cf5d47be8e8a8556361688568
0,      16640,      16640,      256,      512, 8479661ea4b7e8ee3fe337abb34d34ca
0,      16896,      16896,      256,      512, 72945f3895c181bd5e6c8ea817a1ae2a
0,      17152,      17152,      256,      512, 5f423124f40f603dd689eaeb6020063d
0,      17408,      17408,      256,      512, d498b69cd698233cc9d3c136fe31fb2a
0,      17664,      17664,      256,      512, 9c739e2be2aae22188af5fecdb94670c
0,      17920,      17920,      256,      512, 2d51a2ee080d78f1692e424ac87374ce
0,      18176,      18176,      256,      512, c05e4bf6d5dd6399518bc190adf75fa7
0,      18432,      18432,      256,      512, b2a8167af4223e501da688406aeb92d0
0,      18688,      18688,      256,      512, fe69c21053f89701fc44baa408d8b117
0,      18944,      18944,      256,      512, 471d58067d2732a39db302446e236b36
0,      19200,      19200,      256,      512, 445ffd4c76072a81c228d94583121cad
0,      19456,      19456,      256,      512, 86a234adadab1501b1c00c239638318d
0,      19712,      19712,      256,      512, 30ea7ea1bc970f5e315ee1e6c44cb0bf
0,      19968,      19968,      256,      512, 54d6cc50f4549333bb9aeca7a2c1c88d
0,      20224,      20224,      256,      512, 71fbc245e672e3b75708ddbc20f1c3e5
0,      20480,      20480,      256,      512, 1cfdbcc784a099a4ad77514b3f41499e
0,      20736,      20736,      256,      512, b76a0ac13bacee901b8035650dd42d36
0,      20992,      20992,      256,      512, 502dc127bb106624b6fc2537bfbdf9e3
0,      21248,      21248,      256,      512, f0215e677c4965a756612d4c917b3da0
0,      21504,      21504,      256,      512, 8bfe09b7da9bf87ba8815869fd2bbf9d
0,      21760,      21760,      256,      512, 85f9ae922b4df772b023abe2b579905d
0,      22016,      22016,      256,      512, b8388a8cbaf46dbcc0e41fc27ae158c2
0,      22272,      22272,      256,      512, 366e7893bb6392895cd7df36eddd23e8
0,      22528,      22528,      256,      512, 1c2ea9bb0a1ff91514e48dad7374ac45
0,      22784,      22784,      256,      512, 397358994e18a75298bd7750a403e53e
0,      23040,      23040,      256,      512, fd3787d81c08ff7e99c609f32549ae17
0,      23296,      23296,      256,      512, 3731c4fb5ddffd21507ad492de27f1f7
0,      23552,      23552,      256,      512, a89182f216219f72092456d297a714c5
0,      23808,      23808,      256,      512, 79b933431b50217c550b884a4f2bf8f9
0,      24064,      24064,      256,      512, a11271b9427e9f96ae06831b0d3bbf1d
0,      24320,      24320,      256,      512, a9c11af279c2c5f24c6bd13b84987995
0,      24576,      24576,      256,      512, 29e644f7b4ff663b88794dc0353b1b3c
0,      24832,      24832,      256,      512, 3762952b4913a6cf5a784b1fa2a14b61
0,      25088,      25088,      256,      512, 016761522758f561cd2376546d5cf97d
0,      25344,      25344,      256,      512, 5c70a55fcc9fccadcb2039a2fcdf142d
0,      25600,      25600,      256,      512, e8e72842180fc8d742eeb96df5c7fa17
0,      25856,      25856,      256,      512, 607802e1a38605d29a8eade3d912c339
0,      26112,      26112,      256,      512, d19597e4069a4dbe654111bb59e008d8
0,      26368,      26368,      256,      512, 23c6c01fea69397c481786f269a8ca01
0,      26624,      26624,      256,      512, 7ba8b9904781378c5cf6b0f24e39052d
0,      26880,      26880,      256,      512, b5926da775bb56d2eef6eca981a88076
0,      27136,      27136,      256,      512, 9a5c6ef8706247847e2e82cccbf92fc5
0,      27392,      27392,      256,      512, c841ad6f4c50a6e20bde24900c22cb36
0,      27648,      27648,      256,      512, 188c8fae37d2e9893715d2a1c7583d40
0,      27904,      27904,      256,      512, 1ca6e2a0942616e71eecadd8354e55f2
0,      28160,      28160,      256,      512, 836afa2b2e38bd6e21c8d941b9185d59
0,      28416,      28416,      256,      512, 421efcff54c8e4448253f8cf44f27e71
0,      28672,      28672,      256,      512, fa3acbf4223a6879b7fab75a60e269bf
0,      28928,      28928,      256,      512, dfb0715722158a8ea289eb5871499d1e
0,      29184,      29184,      256,      512, 3553a944bd40609f55cba8941934eede
0,      29440,      29440,      256,      512, 830fc73d5b3404dda46fb78a36ee0f90
0,      29696,      29696,      256,      512, f44f799096fecee5bb0c5a0959745d9b
0,      29952,      29952,      256,      512, 2fb3e1463ed5e08a066aa6f2a553c2a8
0,      30208,      30208,      256,      512, db04938618fa9d31484fc22dbc36d9b1
0,      30464,      30464,      256,      512, a5b778243407aa2560952a7c7022b01d
0,      30720,      30720,      256,      512, ec89349500aca15841098a3f856f0ec0
0,      30976,      30976,      256,      512, 0a58d8cc4a8b602b7ffe876c5251a736
0,      31232,      31232,      256,      512, fd8e661b669ad5170b8a18c9824772ea
0,      31488,      31488,      256,      512, dccddb555d4e2274dcc5204e65c96739
0,      31744,      31744,      256,      512, ddcccc2573bd50f3228ee587572d2220
0,      32000,      32000,      256,      512, 6c36e647763583fd90a851a23f3ff4c7
0,      32256,      32256,      256,      512, 90b165fc815c758b46b6f2e24dae8c40
0,      32512,      32512,      256,      512, 4f73fa080eefe7b3ca60151efd1e00fb
0,      32768,      32768,      256,      512, f743e914573ae41536b2b6d6f2b6ba30
0,      33024,      33024,      256,      512, 5e2fbbcbaef9e73ac7796e82cc70bfa8
0,      33280,      33280,      256,      512, 0fe3568ba4dc76200a4ce16873de5de4
0,      33536,      33536,      256,      512, 88bc17f6374bb44f266a0418886874b2
0,      33792,      33792,      256,      512, 1c6fe224f9cd2b88ae3904e1a257aed7
0,      34048,      34048,      256,      512, d5bce8b9aeda32fdbcff64f97257cd41
0,      34304,      34304,      256,      512, 011f31942dfcca4b870b9e67d80e5df2
0,      34560,      34560,      256,      512, 536d116e8e1561dcc1ea9d122275d7d4
0,      34816,      34816,      256,      512, 5713e16ca7b82fdcf5b38d623d26ac5a
0,      35072,      35072,      256,      512, 5b09574c285ba49ebb272e1d359be1e6
0,      35328,      35328,      256,      512, aaf96b9c5df6a49ff3f03a51b44722d8
0,      35584,      35584,      256,      512, 972608e72173d12a161e876c84a30f5d
0,      35840,      35840,      256,      512, 5166e54b188adc196e6b760ddda4c44d
0,      36096,      36096,      256,      512, 7aaff0d65e7878a1a1d29f38d0da209a
0,      36352,      36352,      256,      512, c3cb7c80995ee6de5b199e19556f8608
0,      36608,      36608,      256,      512, c951488b2392d08b687c946c18b8e395
0,      36864,      36864,      256,      512, 62507b9928271a63560aa9cabe36e84d
0,      37120,      37120,      256,      512, 7f940459df9dd1f640e13c1cb174d3be
0,      37376,      37376,      256,      512, 0fd8b132767a41f6225d4d81228d73cc
0,      37632,      37632,      256,      512, 0500f4c2eb78e7c0c7be259175be954a
0,      37888,      37888,      256,      512, 82df25b9533783a80bd250875c0446f7
0,      38144,      38144,      256,      512, 66dd1ea950e13bf577fe8827e60792ef
0,      38400,      38400,      256,      512, 62594c3cc1c35fed0299c2fd98428813
0,      38656,      38656,      256,      512, 4f2db75a638992bfac551100c94e8682
0,      38912,      38912,      256,      512, 60a4d4aa1b17821bd8c5633cce7f25bd
0,      39168,      39168,      256,      512, 6fc50c71c2602964fb729e71de8e47e6
0,      39424,      39424,      256,      512, a69ffa4a479eba013adca4571d4b5f55
0,      39680,      39680,      256,      512, 6783ed47d439d4d9c3813f7661ff3f70
0,      39936,      39936,      256,      512, 7a56c3639a02f9c971a432c6e5ead102
0,      40192,      40192,      256,      512, 6eb5fda2e9948e8072da46fc456c9185
0,      40448,      40448,      256,      512, 703094c6af56d41fe1253c7d4ba5376b
0,      40704,      40704,      256,      512, 987deba6024662259f53ccccbfdb6ac9
0,      40960,      40960,      256,      512, 43f36bb4112274c12fd9a3f36af2d628
0,      41216,      41216,      256,      512, 551b75c6f80308e2879aa63d15ed2f9a
0,      41472,      41472,      256,      512, 58b362438d3b9f9842e7f3a49f07c980
0,      41728,      41728,      256,      512, 96dd1169b39bffc874e34fdfc863bf6e
0,      41984,      41984,      256,      512, 5fed28d7b7b06529529af01165b8d36f
0,      42240,      42240,      256,      512, 6d2bf851c5cf5181795f354a22ed7715
0,      42496,      42496,      256,      512, cd5f1773925eddc2baa926709caecdf1
0,      42752,      42752,      256,      512, 60aa790a40768a0903e4ee32b147ef56
0,      43008,      43008,      256,      512, 681f9d9ff85befe057163d3b7564c7de
0,      43264,      43264,      256,      512, b827a8a4066feeb5257edebd1f4658ba
0,      43520,      43520,      256,      512, 01b4ea3a24f50ca7682f8beb30ff60e4
0,      43776,      43776,      256,      512, 40b2b9718d72d596679c6af65665672c
0,      44032,      44032,      256,      512, 5283209ad861c4a6c343d728043b7551
0,      44288,      44288,      256,      512, 866f47f73a77defe76a45bfb4609efc4
0,      44544,      44544,      256,      512, 4ada422220245e19dcb6dc8e89f2b1d5
0,      44800,      44800,      256,      512, 57ecebc3224922fda4159411ddede31c
0,      45056,      45056,      256,      512, 067eeb6e98946616e21602fe1bab5893
0,      45312,      45312,      256,      512, 5c4f4b8692806a997b244748faa2328f
0,      45568,      45568,      256,      512, 1203aae2f2b330e2c8329d7b1e93b042
0,      45824,      45824,      256,      512, 533b8b72bf462a338f3959aeaca867ca
0,      46080,      46080,      256,      512, 7f2570ef5ee309fa1ff347e4ec2b175a
0,      46336,      46336,      256,      512, 83757b696e080fcab540bdd50c6f43b0
0,      46592,      46592,      256,      512, 1f1f193ca264ecacc51a88a5b9466385
0,      46848,      46848,      256,      512, 3541f86d5d11a24c9ebb323db7258f51
0,      47104,      47104,      256,      512, 81a46c922b6912cbd64c5e9da953eefa
0,      47360,      47360,      256,      512, 2b5193038cbad545ced622a8b070afc3
0,      47616,      47616,      256,      512, 66a768bec0b165d16a30ec1e15bd4d41
0,      47872,      47872,      128,      256, 00ca90e9dbfd75f9d26eeb03d3397266
